<svg width="22" height="20" viewBox="0 0 22 20" fill="none" xmlns="http://www.w3.org/2000/svg">
<path fill-rule="evenodd" clip-rule="evenodd" d="M11.0217 0L20.0303 4.61576V9.2389H18.1048V15.8703H19.0057L19.0054 17.9505L21.0271 17.9516V20H0.972961V17.9516L2.996 17.9505L2.99681 15.8703H3.91489V9.2389H1.97218V4.61576L11.0217 0ZM9.93972 9.2389H5.96415V15.8703H9.93972V9.2389ZM16.0555 9.2389H11.989V15.8703H16.0555V9.2389ZM11.0135 4.18132C10.4315 4.18132 9.94792 4.65675 9.94792 5.24694C9.94792 5.83712 10.4315 6.31255 11.0135 6.31255C11.6037 6.31255 12.0792 5.83712 12.0792 5.24694C12.0792 4.65675 11.6037 4.18132 11.0135 4.18132Z" fill="#081F42"/>
</svg>
