<svg width="24" height="14" viewBox="0 0 24 14" fill="none" xmlns="http://www.w3.org/2000/svg">
<path d="M0 14H24V0H0V14Z" fill="#1A1876"/>
<path fill-rule="evenodd" clip-rule="evenodd" d="M13.4354 6.01824C13.4322 6.25925 13.7329 6.41849 14.2236 6.65681C15.0337 7.02424 15.4076 7.47021 15.4049 8.05659C15.3942 9.12553 14.4361 9.81628 12.9599 9.81628C12.4263 9.81947 11.8965 9.72634 11.396 9.54138L11.5929 8.38852C12.0557 8.63181 12.5728 8.75309 13.0955 8.74088C13.4995 8.74088 13.932 8.58272 13.9358 8.23735C13.9384 8.01194 13.7545 7.85109 13.2079 7.59878C12.6769 7.35347 11.97 6.94032 11.9776 6.20007C11.9835 5.19946 12.9631 4.5001 14.3505 4.5001C14.7796 4.49685 15.2058 4.5697 15.6094 4.71529L15.4189 5.83157C15.053 5.65279 14.6495 5.56477 14.2424 5.57496C13.6899 5.57496 13.4354 5.80306 13.4354 6.01824ZM10.5138 9.73989H9.11021L9.98817 4.58833H11.3923L10.5138 9.73989ZM18.1222 4.59318H19.2073L20.344 9.73774H19.041C19.041 9.73774 18.9119 9.14651 18.87 8.96576H17.0716C17.0172 9.10509 16.7762 9.73989 16.7762 9.73989H15.3017L17.3868 5.02032C17.5073 4.72813 17.8087 4.55303 18.1222 4.59318ZM18.2217 5.98219C18.1071 6.29367 17.5342 7.76501 17.4761 7.91403H18.6413C18.4529 7.04842 18.3882 6.75378 18.3559 6.60676L18.33 6.48878C18.3166 6.427 18.3034 6.36518 18.2658 6.18882L18.2657 6.18827L18.2217 5.98219ZM6.55756 8.105L7.9326 4.59209L9.41954 4.59424L7.20904 9.73611H5.72318L4.4751 5.26186C4.01098 5.0081 3.51483 4.81793 3 4.69646L3.01775 4.58886H5.28205C5.57316 4.55492 5.84482 4.74054 5.919 5.02408L6.41124 7.39112L6.55756 8.105Z" fill="white"/>
</svg>
